<?xml version="1.0" encoding="utf-8"?>
<!-- Generator: Adobe Illustrator 24.3.0, SVG Export Plug-In . SVG Version: 6.00 Build 0)  -->
<svg version="1.1" id="Layer_1" xmlns="http://www.w3.org/2000/svg" xmlns:xlink="http://www.w3.org/1999/xlink" x="0px" y="0px"
	 viewBox="0 0 1000 1000" style="enable-background:new 0 0 1000 1000;" xml:space="preserve">
<style type="text/css">
	.st0{fill:url(#SVGID_1_);}
	.st1{fill-rule:evenodd;clip-rule:evenodd;fill:none;}
</style>
<linearGradient id="SVGID_1_" gradientUnits="userSpaceOnUse" x1="500" y1="-169.4795" x2="500" y2="1130.4719">
	<stop  offset="0" style="stop-color:#00DAFF"/>
	<stop  offset="1" style="stop-color:#0096FF"/>
</linearGradient>
<path class="st0" d="M494.3,467.2l11.8,11.8c23.8-28.3,64-35.3,74.9-35.9C550,436.3,517.4,445.4,494.3,467.2z M833.7,268.7
	l-27.4-15.8l-128,221.7c54.1,31.2,72.7,100.4,41.4,154.6L462.6,480.7c31.2-54.1,100.4-72.7,154.6-41.4L831.6,68L705.1,194.5
	l-135.4-78.1c-44.3-25.6-95.1-25.6-139.4,0L166.4,268.7c-44.3,25.6-69.7,69.6-69.7,120.8v402.2c0,76.8,62.6,139.4,139.4,139.4h527.9
	c76.8,0,139.4-62.6,139.4-139.4V389.5C903.4,338.3,878,294.3,833.7,268.7z M347.3,290.7c0,39,31.6,70.7,70.7,70.7
	c-39,0-70.7,31.6-70.7,70.7c0-39-31.7-70.7-70.7-70.7C315.7,361.4,347.3,329.8,347.3,290.7z M329.4,450c-19.9,0-36,16.1-36,36
	c0-19.9-16.1-36-36-36c19.9,0,36-16.1,36-36C293.5,433.9,309.6,450,329.4,450z M259.6,383.9c8,0,14.5,6.5,14.5,14.5
	s-6.5,14.5-14.5,14.5c-8,0-14.5-6.5-14.5-14.5S251.6,383.9,259.6,383.9z M230.7,324.9c6.4,0,11.6,5.2,11.6,11.6S237,348,230.7,348
	s-11.6-5.2-11.6-11.6S224.3,324.9,230.7,324.9z M631.7,764.6c-63.3,94.7-231.1,105.7-319.2,54.9c39.8-13.8,124.1-58.5,148.7-95.5
	c-48.1,37.9-120.5,71.9-199.9,79.7c-56.7-46.8-26.4-100.1-54.7-145.4c77.5,16.4,154.8,8.5,182.8-7.8c-53.5,8.9-121.2,12.5-200-22
	c27.6-42.1,5.4-92,29-134C307,613,417,529.8,443.8,506.3l176.3,101.8L600.2,658l56.1-29l47.7,27.5L631.7,764.6z"/>
<path class="st1" d="M494.3,467.2l11.8,11.8c23.8-28.3,64-35.3,74.9-35.9C550,436.3,517.4,445.4,494.3,467.2z M833.7,268.7
	l-27.4-15.8l-128,221.7c54.1,31.2,72.7,100.4,41.4,154.6L462.6,480.7c31.2-54.1,100.4-72.7,154.6-41.4L831.6,68L705.1,194.5
	l-135.4-78.1c-44.3-25.6-95.1-25.6-139.4,0L166.4,268.7c-44.3,25.6-69.7,69.6-69.7,120.8v402.2c0,76.8,62.6,139.4,139.4,139.4h527.9
	c76.8,0,139.4-62.6,139.4-139.4V389.5C903.4,338.3,878,294.3,833.7,268.7z M347.3,290.7c0,39,31.6,70.7,70.7,70.7
	c-39,0-70.7,31.6-70.7,70.7c0-39-31.7-70.7-70.7-70.7C315.7,361.4,347.3,329.8,347.3,290.7z M329.4,450c-19.9,0-36,16.1-36,36
	c0-19.9-16.1-36-36-36c19.9,0,36-16.1,36-36C293.5,433.9,309.6,450,329.4,450z M259.6,383.9c8,0,14.5,6.5,14.5,14.5
	s-6.5,14.5-14.5,14.5c-8,0-14.5-6.5-14.5-14.5S251.6,383.9,259.6,383.9z M230.7,324.9c6.4,0,11.6,5.2,11.6,11.6S237,348,230.7,348
	s-11.6-5.2-11.6-11.6S224.3,324.9,230.7,324.9z M631.7,764.6c-63.3,94.7-231.1,105.7-319.2,54.9c39.8-13.8,124.1-58.5,148.7-95.5
	c-48.1,37.9-120.5,71.9-199.9,79.7c-56.7-46.8-26.4-100.1-54.7-145.4c77.5,16.4,154.8,8.5,182.8-7.8c-53.5,8.9-121.2,12.5-200-22
	c27.6-42.1,5.4-92,29-134C307,613,417,529.8,443.8,506.3l176.3,101.8L600.2,658l56.1-29l47.7,27.5L631.7,764.6z"/>
</svg>
